<mxfile host="app.diagrams.net" agent="Mozilla/5.0 (Windows NT 10.0; Win64; x64) AppleWebKit/537.36 (KHTML, like Gecko) Chrome/129.0.0.0 Safari/537.36" version="24.8.0">
  <diagram name="페이지-1" id="2LoMUdnaNZ5WJF1CiEa_">
    <mxGraphModel dx="2606" dy="3434" grid="0" gridSize="10" guides="1" tooltips="1" connect="1" arrows="1" fold="1" page="0" pageScale="1" pageWidth="827" pageHeight="1169" math="0" shadow="0">
      <root>
        <mxCell id="0" />
        <mxCell id="1" parent="0" />
        <mxCell id="ZOqn0F8x4gFx_F6yHbFL-2" value="고객" style="whiteSpace=wrap;html=1;align=center;" vertex="1" parent="1">
          <mxGeometry x="-394" y="-752" width="100" height="40" as="geometry" />
        </mxCell>
        <mxCell id="ZOqn0F8x4gFx_F6yHbFL-4" value="고객명" style="ellipse;whiteSpace=wrap;html=1;align=center;" vertex="1" parent="1">
          <mxGeometry x="-544" y="-860" width="100" height="40" as="geometry" />
        </mxCell>
        <mxCell id="ZOqn0F8x4gFx_F6yHbFL-5" value="" style="endArrow=none;html=1;rounded=0;fontSize=12;startSize=8;endSize=8;curved=1;exitX=0.5;exitY=0;exitDx=0;exitDy=0;entryX=0.5;entryY=1;entryDx=0;entryDy=0;" edge="1" parent="1" source="ZOqn0F8x4gFx_F6yHbFL-2" target="ZOqn0F8x4gFx_F6yHbFL-4">
          <mxGeometry relative="1" as="geometry">
            <mxPoint x="-386" y="-586" as="sourcePoint" />
            <mxPoint x="-226" y="-586" as="targetPoint" />
          </mxGeometry>
        </mxCell>
        <mxCell id="ZOqn0F8x4gFx_F6yHbFL-19" value="전화번호" style="ellipse;whiteSpace=wrap;html=1;align=center;fontStyle=4;" vertex="1" parent="1">
          <mxGeometry x="-446" y="-898" width="100" height="40" as="geometry" />
        </mxCell>
        <mxCell id="ZOqn0F8x4gFx_F6yHbFL-20" value="" style="endArrow=none;html=1;rounded=0;fontSize=12;startSize=8;endSize=8;curved=1;exitX=0.5;exitY=0;exitDx=0;exitDy=0;entryX=0.5;entryY=1;entryDx=0;entryDy=0;" edge="1" parent="1" source="ZOqn0F8x4gFx_F6yHbFL-2" target="ZOqn0F8x4gFx_F6yHbFL-19">
          <mxGeometry relative="1" as="geometry">
            <mxPoint x="-334" y="-742" as="sourcePoint" />
            <mxPoint x="-427" y="-785" as="targetPoint" />
          </mxGeometry>
        </mxCell>
        <mxCell id="ZOqn0F8x4gFx_F6yHbFL-21" value="이메일" style="ellipse;whiteSpace=wrap;html=1;align=center;fontStyle=4;" vertex="1" parent="1">
          <mxGeometry x="-338" y="-891" width="100" height="40" as="geometry" />
        </mxCell>
        <mxCell id="ZOqn0F8x4gFx_F6yHbFL-22" value="" style="endArrow=none;html=1;rounded=0;fontSize=12;startSize=8;endSize=8;curved=1;exitX=0.5;exitY=0;exitDx=0;exitDy=0;entryX=0.5;entryY=1;entryDx=0;entryDy=0;" edge="1" parent="1" source="ZOqn0F8x4gFx_F6yHbFL-2" target="ZOqn0F8x4gFx_F6yHbFL-21">
          <mxGeometry relative="1" as="geometry">
            <mxPoint x="-334" y="-742" as="sourcePoint" />
            <mxPoint x="-254" y="-832" as="targetPoint" />
          </mxGeometry>
        </mxCell>
        <mxCell id="ZOqn0F8x4gFx_F6yHbFL-23" value="고객코드" style="ellipse;whiteSpace=wrap;html=1;align=center;fontStyle=4;" vertex="1" parent="1">
          <mxGeometry x="-244" y="-851" width="100" height="40" as="geometry" />
        </mxCell>
        <mxCell id="ZOqn0F8x4gFx_F6yHbFL-24" value="" style="endArrow=none;html=1;rounded=0;fontSize=12;startSize=8;endSize=8;curved=1;exitX=0.5;exitY=0;exitDx=0;exitDy=0;entryX=0;entryY=0.5;entryDx=0;entryDy=0;" edge="1" parent="1" source="ZOqn0F8x4gFx_F6yHbFL-2" target="ZOqn0F8x4gFx_F6yHbFL-23">
          <mxGeometry relative="1" as="geometry">
            <mxPoint x="-334" y="-742" as="sourcePoint" />
            <mxPoint x="-204" y="-791" as="targetPoint" />
          </mxGeometry>
        </mxCell>
        <mxCell id="ZOqn0F8x4gFx_F6yHbFL-25" value="주소" style="ellipse;whiteSpace=wrap;html=1;align=center;" vertex="1" parent="1">
          <mxGeometry x="-557" y="-752" width="100" height="40" as="geometry" />
        </mxCell>
        <mxCell id="ZOqn0F8x4gFx_F6yHbFL-27" value="" style="endArrow=none;html=1;rounded=0;fontSize=12;startSize=8;endSize=8;curved=1;exitX=0;exitY=0.5;exitDx=0;exitDy=0;entryX=1;entryY=0.5;entryDx=0;entryDy=0;" edge="1" parent="1" source="ZOqn0F8x4gFx_F6yHbFL-2" target="ZOqn0F8x4gFx_F6yHbFL-25">
          <mxGeometry relative="1" as="geometry">
            <mxPoint x="-334" y="-742" as="sourcePoint" />
            <mxPoint x="-484" y="-810" as="targetPoint" />
          </mxGeometry>
        </mxCell>
        <mxCell id="ZOqn0F8x4gFx_F6yHbFL-28" value="기본주소" style="ellipse;whiteSpace=wrap;html=1;align=center;" vertex="1" parent="1">
          <mxGeometry x="-703" y="-789" width="100" height="40" as="geometry" />
        </mxCell>
        <mxCell id="ZOqn0F8x4gFx_F6yHbFL-29" value="상세주소" style="ellipse;whiteSpace=wrap;html=1;align=center;" vertex="1" parent="1">
          <mxGeometry x="-703" y="-721" width="100" height="40" as="geometry" />
        </mxCell>
        <mxCell id="ZOqn0F8x4gFx_F6yHbFL-30" value="" style="endArrow=none;html=1;rounded=0;fontSize=12;startSize=8;endSize=8;curved=1;exitX=0;exitY=0.5;exitDx=0;exitDy=0;entryX=1;entryY=0.5;entryDx=0;entryDy=0;" edge="1" parent="1" source="ZOqn0F8x4gFx_F6yHbFL-25" target="ZOqn0F8x4gFx_F6yHbFL-28">
          <mxGeometry relative="1" as="geometry">
            <mxPoint x="-334" y="-742" as="sourcePoint" />
            <mxPoint x="-484" y="-810" as="targetPoint" />
          </mxGeometry>
        </mxCell>
        <mxCell id="ZOqn0F8x4gFx_F6yHbFL-31" value="" style="endArrow=none;html=1;rounded=0;fontSize=12;startSize=8;endSize=8;curved=1;exitX=0;exitY=0.5;exitDx=0;exitDy=0;entryX=1;entryY=0.5;entryDx=0;entryDy=0;" edge="1" parent="1" source="ZOqn0F8x4gFx_F6yHbFL-25" target="ZOqn0F8x4gFx_F6yHbFL-29">
          <mxGeometry relative="1" as="geometry">
            <mxPoint x="-563" y="-724" as="sourcePoint" />
            <mxPoint x="-593" y="-759" as="targetPoint" />
          </mxGeometry>
        </mxCell>
        <mxCell id="ZOqn0F8x4gFx_F6yHbFL-33" value="가입일" style="ellipse;whiteSpace=wrap;html=1;align=center;" vertex="1" parent="1">
          <mxGeometry x="-557" y="-660" width="100" height="40" as="geometry" />
        </mxCell>
        <mxCell id="ZOqn0F8x4gFx_F6yHbFL-34" value="" style="endArrow=none;html=1;rounded=0;fontSize=12;startSize=8;endSize=8;curved=1;exitX=0;exitY=0.5;exitDx=0;exitDy=0;" edge="1" parent="1" source="ZOqn0F8x4gFx_F6yHbFL-2" target="ZOqn0F8x4gFx_F6yHbFL-33">
          <mxGeometry relative="1" as="geometry">
            <mxPoint x="-384" y="-722" as="sourcePoint" />
            <mxPoint x="-447" y="-722" as="targetPoint" />
          </mxGeometry>
        </mxCell>
        <mxCell id="ZOqn0F8x4gFx_F6yHbFL-38" value="지역" style="whiteSpace=wrap;html=1;align=center;" vertex="1" parent="1">
          <mxGeometry x="-394" y="-461" width="100" height="40" as="geometry" />
        </mxCell>
        <mxCell id="ZOqn0F8x4gFx_F6yHbFL-39" value="지역명" style="ellipse;whiteSpace=wrap;html=1;align=center;" vertex="1" parent="1">
          <mxGeometry x="-595" y="-492" width="100" height="40" as="geometry" />
        </mxCell>
        <mxCell id="ZOqn0F8x4gFx_F6yHbFL-40" value="" style="endArrow=none;html=1;rounded=0;fontSize=12;startSize=8;endSize=8;curved=1;exitX=0;exitY=0.5;exitDx=0;exitDy=0;entryX=1;entryY=0.5;entryDx=0;entryDy=0;" edge="1" parent="1" source="ZOqn0F8x4gFx_F6yHbFL-38" target="ZOqn0F8x4gFx_F6yHbFL-39">
          <mxGeometry relative="1" as="geometry">
            <mxPoint x="-468" y="-697" as="sourcePoint" />
            <mxPoint x="-502" y="-622" as="targetPoint" />
          </mxGeometry>
        </mxCell>
        <mxCell id="ZOqn0F8x4gFx_F6yHbFL-41" value="지역코드" style="ellipse;whiteSpace=wrap;html=1;align=center;fontStyle=4;" vertex="1" parent="1">
          <mxGeometry x="-595" y="-430" width="100" height="40" as="geometry" />
        </mxCell>
        <mxCell id="ZOqn0F8x4gFx_F6yHbFL-42" value="" style="endArrow=none;html=1;rounded=0;fontSize=12;startSize=8;endSize=8;curved=1;entryX=1;entryY=0.5;entryDx=0;entryDy=0;exitX=0;exitY=0.5;exitDx=0;exitDy=0;" edge="1" parent="1" source="ZOqn0F8x4gFx_F6yHbFL-38" target="ZOqn0F8x4gFx_F6yHbFL-41">
          <mxGeometry relative="1" as="geometry">
            <mxPoint x="-550" y="-460" as="sourcePoint" />
            <mxPoint x="-594" y="-432" as="targetPoint" />
          </mxGeometry>
        </mxCell>
        <mxCell id="ZOqn0F8x4gFx_F6yHbFL-43" value="제품" style="whiteSpace=wrap;html=1;align=center;" vertex="1" parent="1">
          <mxGeometry x="240" y="-752" width="100" height="40" as="geometry" />
        </mxCell>
        <mxCell id="ZOqn0F8x4gFx_F6yHbFL-44" value="제품명" style="ellipse;whiteSpace=wrap;html=1;align=center;" vertex="1" parent="1">
          <mxGeometry x="240" y="-878" width="100" height="40" as="geometry" />
        </mxCell>
        <mxCell id="ZOqn0F8x4gFx_F6yHbFL-45" value="" style="endArrow=none;html=1;rounded=0;fontSize=12;startSize=8;endSize=8;curved=1;exitX=0.5;exitY=0;exitDx=0;exitDy=0;entryX=0.5;entryY=1;entryDx=0;entryDy=0;" edge="1" parent="1" source="ZOqn0F8x4gFx_F6yHbFL-43" target="ZOqn0F8x4gFx_F6yHbFL-44">
          <mxGeometry relative="1" as="geometry">
            <mxPoint x="320" y="-966" as="sourcePoint" />
            <mxPoint x="286" y="-891" as="targetPoint" />
          </mxGeometry>
        </mxCell>
        <mxCell id="ZOqn0F8x4gFx_F6yHbFL-46" value="제품코드" style="ellipse;whiteSpace=wrap;html=1;align=center;fontStyle=4;" vertex="1" parent="1">
          <mxGeometry x="137" y="-845" width="100" height="40" as="geometry" />
        </mxCell>
        <mxCell id="ZOqn0F8x4gFx_F6yHbFL-47" value="" style="endArrow=none;html=1;rounded=0;fontSize=12;startSize=8;endSize=8;curved=1;entryX=1;entryY=1;entryDx=0;entryDy=0;exitX=0.5;exitY=0;exitDx=0;exitDy=0;" edge="1" parent="1" source="ZOqn0F8x4gFx_F6yHbFL-43" target="ZOqn0F8x4gFx_F6yHbFL-46">
          <mxGeometry relative="1" as="geometry">
            <mxPoint x="238" y="-729" as="sourcePoint" />
            <mxPoint x="194" y="-701" as="targetPoint" />
          </mxGeometry>
        </mxCell>
        <mxCell id="ZOqn0F8x4gFx_F6yHbFL-48" value="제품구분" style="ellipse;whiteSpace=wrap;html=1;align=center;" vertex="1" parent="1">
          <mxGeometry x="360" y="-873" width="100" height="40" as="geometry" />
        </mxCell>
        <mxCell id="ZOqn0F8x4gFx_F6yHbFL-50" value="" style="endArrow=none;html=1;rounded=0;fontSize=12;startSize=8;endSize=8;curved=1;exitX=0.5;exitY=0;exitDx=0;exitDy=0;entryX=0.5;entryY=1;entryDx=0;entryDy=0;" edge="1" parent="1" source="ZOqn0F8x4gFx_F6yHbFL-43" target="ZOqn0F8x4gFx_F6yHbFL-48">
          <mxGeometry relative="1" as="geometry">
            <mxPoint x="250" y="-722" as="sourcePoint" />
            <mxPoint x="181" y="-750" as="targetPoint" />
          </mxGeometry>
        </mxCell>
        <mxCell id="ZOqn0F8x4gFx_F6yHbFL-51" value="제품색상" style="ellipse;shape=doubleEllipse;margin=3;whiteSpace=wrap;html=1;align=center;" vertex="1" parent="1">
          <mxGeometry x="430" y="-810" width="100" height="40" as="geometry" />
        </mxCell>
        <mxCell id="ZOqn0F8x4gFx_F6yHbFL-52" value="" style="endArrow=none;html=1;rounded=0;fontSize=12;startSize=8;endSize=8;curved=1;entryX=0;entryY=0.5;entryDx=0;entryDy=0;exitX=1;exitY=0.5;exitDx=0;exitDy=0;" edge="1" parent="1" source="ZOqn0F8x4gFx_F6yHbFL-43" target="ZOqn0F8x4gFx_F6yHbFL-51">
          <mxGeometry relative="1" as="geometry">
            <mxPoint x="376" y="-712" as="sourcePoint" />
            <mxPoint x="420" y="-823" as="targetPoint" />
          </mxGeometry>
        </mxCell>
        <mxCell id="ZOqn0F8x4gFx_F6yHbFL-53" value="" style="endArrow=none;html=1;rounded=0;fontSize=12;startSize=8;endSize=8;curved=1;exitX=1;exitY=0.5;exitDx=0;exitDy=0;entryX=0;entryY=0.5;entryDx=0;entryDy=0;" edge="1" parent="1" source="ZOqn0F8x4gFx_F6yHbFL-43" target="ZOqn0F8x4gFx_F6yHbFL-54">
          <mxGeometry relative="1" as="geometry">
            <mxPoint x="310" y="-732" as="sourcePoint" />
            <mxPoint x="430" y="-813" as="targetPoint" />
          </mxGeometry>
        </mxCell>
        <mxCell id="ZOqn0F8x4gFx_F6yHbFL-54" value="가격" style="ellipse;whiteSpace=wrap;html=1;align=center;" vertex="1" parent="1">
          <mxGeometry x="437" y="-752" width="100" height="40" as="geometry" />
        </mxCell>
        <mxCell id="ZOqn0F8x4gFx_F6yHbFL-56" value="관리" style="shape=rhombus;perimeter=rhombusPerimeter;whiteSpace=wrap;html=1;align=center;" vertex="1" parent="1">
          <mxGeometry x="-404" y="-598" width="120" height="60" as="geometry" />
        </mxCell>
        <mxCell id="ZOqn0F8x4gFx_F6yHbFL-60" value="" style="endArrow=none;html=1;rounded=0;fontSize=12;startSize=8;endSize=8;curved=1;exitX=0.5;exitY=1;exitDx=0;exitDy=0;entryX=0.5;entryY=0;entryDx=0;entryDy=0;" edge="1" parent="1" source="ZOqn0F8x4gFx_F6yHbFL-2" target="ZOqn0F8x4gFx_F6yHbFL-56">
          <mxGeometry relative="1" as="geometry">
            <mxPoint x="-334" y="-702" as="sourcePoint" />
            <mxPoint x="-368" y="-627" as="targetPoint" />
          </mxGeometry>
        </mxCell>
        <mxCell id="ZOqn0F8x4gFx_F6yHbFL-63" value="N" style="edgeLabel;html=1;align=center;verticalAlign=middle;resizable=0;points=[];fontSize=12;" vertex="1" connectable="0" parent="ZOqn0F8x4gFx_F6yHbFL-60">
          <mxGeometry x="0.0281" y="-3" relative="1" as="geometry">
            <mxPoint x="-8" y="44" as="offset" />
          </mxGeometry>
        </mxCell>
        <mxCell id="ZOqn0F8x4gFx_F6yHbFL-61" value="" style="endArrow=none;html=1;rounded=0;fontSize=12;startSize=8;endSize=8;curved=1;exitX=0.5;exitY=1;exitDx=0;exitDy=0;entryX=0.5;entryY=0;entryDx=0;entryDy=0;" edge="1" parent="1" source="ZOqn0F8x4gFx_F6yHbFL-56" target="ZOqn0F8x4gFx_F6yHbFL-38">
          <mxGeometry relative="1" as="geometry">
            <mxPoint x="-334" y="-702" as="sourcePoint" />
            <mxPoint x="-415" y="-590" as="targetPoint" />
          </mxGeometry>
        </mxCell>
        <mxCell id="ZOqn0F8x4gFx_F6yHbFL-64" value="1" style="edgeLabel;html=1;align=center;verticalAlign=middle;resizable=0;points=[];fontSize=12;" vertex="1" connectable="0" parent="1">
          <mxGeometry x="-337.9969206055675" y="-520.0005852537445" as="geometry">
            <mxPoint x="-20" y="-5" as="offset" />
          </mxGeometry>
        </mxCell>
        <mxCell id="ZOqn0F8x4gFx_F6yHbFL-66" value="" style="endArrow=none;html=1;rounded=0;fontSize=12;startSize=8;endSize=8;curved=1;exitX=0;exitY=0.5;exitDx=0;exitDy=0;entryX=1;entryY=0.5;entryDx=0;entryDy=0;" edge="1" parent="1" source="ZOqn0F8x4gFx_F6yHbFL-43" target="ZOqn0F8x4gFx_F6yHbFL-67">
          <mxGeometry relative="1" as="geometry">
            <mxPoint x="247" y="-679" as="sourcePoint" />
            <mxPoint x="187" y="-612" as="targetPoint" />
          </mxGeometry>
        </mxCell>
        <mxCell id="ZOqn0F8x4gFx_F6yHbFL-67" value="구매" style="shape=rhombus;perimeter=rhombusPerimeter;whiteSpace=wrap;html=1;align=center;" vertex="1" parent="1">
          <mxGeometry x="-128" y="-762" width="120" height="60" as="geometry" />
        </mxCell>
        <mxCell id="ZOqn0F8x4gFx_F6yHbFL-68" value="구매번호" style="ellipse;whiteSpace=wrap;html=1;align=center;fontStyle=4;" vertex="1" parent="1">
          <mxGeometry x="-225.5" y="-639" width="100" height="40" as="geometry" />
        </mxCell>
        <mxCell id="ZOqn0F8x4gFx_F6yHbFL-69" value="수량" style="ellipse;whiteSpace=wrap;html=1;align=center;" vertex="1" parent="1">
          <mxGeometry x="-119.5" y="-638" width="100" height="40" as="geometry" />
        </mxCell>
        <mxCell id="ZOqn0F8x4gFx_F6yHbFL-70" value="구매일자" style="ellipse;whiteSpace=wrap;html=1;align=center;" vertex="1" parent="1">
          <mxGeometry x="-10.5" y="-638" width="100" height="40" as="geometry" />
        </mxCell>
        <mxCell id="ZOqn0F8x4gFx_F6yHbFL-71" value="" style="endArrow=none;html=1;rounded=0;fontSize=12;startSize=8;endSize=8;curved=1;entryX=0.5;entryY=1;entryDx=0;entryDy=0;exitX=0.5;exitY=0;exitDx=0;exitDy=0;" edge="1" parent="1" source="ZOqn0F8x4gFx_F6yHbFL-68" target="ZOqn0F8x4gFx_F6yHbFL-67">
          <mxGeometry relative="1" as="geometry">
            <mxPoint x="197" y="-699" as="sourcePoint" />
            <mxPoint x="129" y="-758" as="targetPoint" />
          </mxGeometry>
        </mxCell>
        <mxCell id="ZOqn0F8x4gFx_F6yHbFL-72" value="" style="endArrow=none;html=1;rounded=0;fontSize=12;startSize=8;endSize=8;curved=1;exitX=0.5;exitY=0;exitDx=0;exitDy=0;entryX=0.5;entryY=1;entryDx=0;entryDy=0;" edge="1" parent="1" source="ZOqn0F8x4gFx_F6yHbFL-69" target="ZOqn0F8x4gFx_F6yHbFL-67">
          <mxGeometry relative="1" as="geometry">
            <mxPoint x="-181" y="-628" as="sourcePoint" />
            <mxPoint x="-84" y="-671" as="targetPoint" />
          </mxGeometry>
        </mxCell>
        <mxCell id="ZOqn0F8x4gFx_F6yHbFL-73" value="" style="endArrow=none;html=1;rounded=0;fontSize=12;startSize=8;endSize=8;curved=1;entryX=0.5;entryY=1;entryDx=0;entryDy=0;exitX=0.5;exitY=0;exitDx=0;exitDy=0;" edge="1" parent="1" source="ZOqn0F8x4gFx_F6yHbFL-70" target="ZOqn0F8x4gFx_F6yHbFL-67">
          <mxGeometry relative="1" as="geometry">
            <mxPoint x="-171" y="-618" as="sourcePoint" />
            <mxPoint x="-61" y="-651" as="targetPoint" />
          </mxGeometry>
        </mxCell>
        <mxCell id="ZOqn0F8x4gFx_F6yHbFL-74" value="" style="endArrow=none;html=1;rounded=0;fontSize=12;startSize=8;endSize=8;curved=1;exitX=1;exitY=0.5;exitDx=0;exitDy=0;entryX=0;entryY=0.5;entryDx=0;entryDy=0;" edge="1" parent="1" source="ZOqn0F8x4gFx_F6yHbFL-2" target="ZOqn0F8x4gFx_F6yHbFL-67">
          <mxGeometry relative="1" as="geometry">
            <mxPoint x="-334" y="-742" as="sourcePoint" />
            <mxPoint x="-234" y="-821" as="targetPoint" />
          </mxGeometry>
        </mxCell>
        <mxCell id="ZOqn0F8x4gFx_F6yHbFL-75" value="N" style="edgeLabel;html=1;align=center;verticalAlign=middle;resizable=0;points=[];fontSize=12;" vertex="1" connectable="0" parent="ZOqn0F8x4gFx_F6yHbFL-74">
          <mxGeometry x="0.623" y="4" relative="1" as="geometry">
            <mxPoint x="20" y="-7" as="offset" />
          </mxGeometry>
        </mxCell>
        <mxCell id="ZOqn0F8x4gFx_F6yHbFL-76" value="M" style="edgeLabel;html=1;align=center;verticalAlign=middle;resizable=0;points=[];fontSize=12;" vertex="1" connectable="0" parent="1">
          <mxGeometry x="-127.99588235294121" y="-730" as="geometry">
            <mxPoint x="129" y="-15" as="offset" />
          </mxGeometry>
        </mxCell>
      </root>
    </mxGraphModel>
  </diagram>
</mxfile>
